<?xml version="1.0" encoding="utf-8"?>
<!-- Generator: Adobe Illustrator 25.4.1, SVG Export Plug-In . SVG Version: 6.00 Build 0)  -->
<svg version="1.1" id="Ebene_1" xmlns="http://www.w3.org/2000/svg" xmlns:xlink="http://www.w3.org/1999/xlink" x="0px" y="0px"
	 viewBox="0 0 1768 1768" style="enable-background:new 0 0 1768 1768;" xml:space="preserve">
<style type="text/css">
	.st0{fill:#E0222A;}
</style>
<path class="st0" d="M834,260.2c0,143.3-116.1,260.2-260.2,260.2c-144.1-0.8-260.2-116.9-260.2-260.2S429.6,0,573.7,0
	C717,0,834,116.1,834,260.2z M573.7,1247.6c-144.1,0-260.2,116.9-260.2,260.2c0,144.1,116.1,260.2,260.2,260.2
	S834,1651.1,834,1507.8C834,1363.7,717,1247.6,573.7,1247.6z M1197.1,764.2c-66.7,0-120.2,53.5-120.2,120.2
	c0,65.9,54.3,120.2,120.2,120.2c66.7,0,120.2-53.5,120.2-120.2S1263.8,764.2,1197.1,764.2z M1197.9,1247.6
	c-144.1,0-260.2,116.9-260.2,260.2c0,144.1,116.1,260.2,260.2,260.2s260.2-116.9,260.2-260.2
	C1458.2,1363.7,1342,1247.6,1197.9,1247.6z M693.1,884.4c0-66.7-53.5-120.2-120.2-120.2s-120.2,53.5-120.2,120.2
	c0,65.9,54.3,120.2,120.2,120.2C639.6,1004.6,693.1,951.1,693.1,884.4z M1197.1,380.4c66.7,0,120.2-53.5,120.2-120.2
	S1263.8,140,1197.1,140s-120.2,53.5-120.2,120.2C1076.9,326.1,1131.2,380.4,1197.1,380.4z"/>
</svg>
